<?xml version="1.0" encoding="UTF-8" standalone="no"?>
<!DOCTYPE svg PUBLIC "-//W3C//DTD SVG 1.1//EN"
 "http://www.w3.org/Graphics/SVG/1.1/DTD/svg11.dtd">
<!-- Generated by graphviz version 2.47.0 (20210316.0004)
 -->
<!-- Title: dependencies Pages: 1 -->
<svg width="504pt" height="211pt"
 viewBox="0.00 0.00 504.00 211.00" xmlns="http://www.w3.org/2000/svg" xmlns:xlink="http://www.w3.org/1999/xlink">
<g id="graph0" class="graph" transform="scale(1 1) rotate(0) translate(4 207)">
<title>dependencies</title>
<polygon fill="white" stroke="transparent" points="-4,4 -4,-207 500,-207 500,4 -4,4"/>
<text text-anchor="start" x="227.01" y="-42.4" font-family="Times-12" font-weight="bold" font-size="14.00">Legend</text>
<polygon fill="#ffffb3" stroke="transparent" points="14,-10 14,-30 34,-30 34,-10 14,-10"/>
<text text-anchor="start" x="37.63" y="-15.4" font-family="Times-12" font-size="14.00"> &#160;Declarations</text>
<polygon fill="#8dd3c7" stroke="transparent" points="127,-10 127,-30 147,-30 147,-10 127,-10"/>
<text text-anchor="start" x="150.73" y="-15.4" font-family="Times-12" font-size="14.00"> &#160;Module</text>
<polygon fill="#80b1d3" stroke="transparent" points="213,-10 213,-30 233,-30 233,-10 213,-10"/>
<text text-anchor="start" x="236.78" y="-15.4" font-family="Times-12" font-size="14.00"> &#160;Bootstrap</text>
<polygon fill="#fdb462" stroke="transparent" points="310,-10 310,-30 330,-30 330,-10 310,-10"/>
<text text-anchor="start" x="333.67" y="-15.4" font-family="Times-12" font-size="14.00"> &#160;Providers</text>
<polygon fill="#fb8072" stroke="transparent" points="406,-10 406,-30 426,-30 426,-10 406,-10"/>
<text text-anchor="start" x="429.73" y="-15.4" font-family="Times-12" font-size="14.00"> &#160;Exports</text>
<g id="clust1" class="cluster">
<title>cluster_PlanningModelsPageModule</title>
<polygon fill="none" stroke="black" stroke-dasharray="1,5" points="41,-70 41,-195 455,-195 455,-70 41,-70"/>
</g>
<g id="clust2" class="cluster">
<title>cluster_PlanningModelsPageModule_declarations</title>
<polygon fill="none" stroke="black" points="297,-78 297,-130 447,-130 447,-78 297,-78"/>
</g>
<g id="clust4" class="cluster">
<title>cluster_PlanningModelsPageModule_imports</title>
<polygon fill="none" stroke="black" points="49,-78 49,-130 289,-130 289,-78 49,-78"/>
</g>
<!-- PlanningModelsPage -->
<g id="node1" class="node">
<title>PlanningModelsPage</title>
<polygon fill="#ffffb3" stroke="black" points="439.48,-122 304.52,-122 304.52,-86 439.48,-86 439.48,-122"/>
<text text-anchor="middle" x="372" y="-99.8" font-family="Times,serif" font-size="14.00">PlanningModelsPage</text>
</g>
<!-- PlanningModelsPageModule -->
<g id="node2" class="node">
<title>PlanningModelsPageModule</title>
<polygon fill="#8dd3c7" stroke="black" points="352.04,-187 349.04,-191 328.04,-191 325.04,-187 173.96,-187 173.96,-151 352.04,-151 352.04,-187"/>
<text text-anchor="middle" x="263" y="-164.8" font-family="Times,serif" font-size="14.00">PlanningModelsPageModule</text>
</g>
<!-- PlanningModelsPage&#45;&gt;PlanningModelsPageModule -->
<g id="edge1" class="edge">
<title>PlanningModelsPage&#45;&gt;PlanningModelsPageModule</title>
<path fill="none" stroke="black" d="M328.39,-122.11C328.39,-122.11 328.39,-140.99 328.39,-140.99"/>
<polygon fill="black" stroke="black" points="324.89,-140.99 328.39,-150.99 331.89,-140.99 324.89,-140.99"/>
</g>
<!-- PlanningModelsPageRoutingModule -->
<g id="node3" class="node">
<title>PlanningModelsPageRoutingModule</title>
<polygon fill="#8dd3c7" stroke="black" points="280.65,-122 277.65,-126 256.65,-126 253.65,-122 57.35,-122 57.35,-86 280.65,-86 280.65,-122"/>
<text text-anchor="middle" x="169" y="-99.8" font-family="Times,serif" font-size="14.00">PlanningModelsPageRoutingModule</text>
</g>
<!-- PlanningModelsPageRoutingModule&#45;&gt;PlanningModelsPageModule -->
<g id="edge2" class="edge">
<title>PlanningModelsPageRoutingModule&#45;&gt;PlanningModelsPageModule</title>
<path fill="none" stroke="black" d="M227.28,-122.11C227.28,-122.11 227.28,-140.99 227.28,-140.99"/>
<polygon fill="black" stroke="black" points="223.78,-140.99 227.28,-150.99 230.78,-140.99 223.78,-140.99"/>
</g>
</g>
</svg>
