<?xml version="1.0" encoding="UTF-8" standalone="no"?>
<!DOCTYPE svg PUBLIC "-//W3C//DTD SVG 1.1//EN"
 "http://www.w3.org/Graphics/SVG/1.1/DTD/svg11.dtd">
<!-- Generated by graphviz version 2.47.0 (20210316.0004)
 -->
<!-- Title: dependencies Pages: 1 -->
<svg width="512pt" height="211pt"
 viewBox="0.00 0.00 512.00 211.00" xmlns="http://www.w3.org/2000/svg" xmlns:xlink="http://www.w3.org/1999/xlink">
<g id="graph0" class="graph" transform="scale(1 1) rotate(0) translate(4 207)">
<title>dependencies</title>
<polygon fill="white" stroke="transparent" points="-4,4 -4,-207 508,-207 508,4 -4,4"/>
<text text-anchor="start" x="231.01" y="-42.4" font-family="Times-12" font-weight="bold" font-size="14.00">Legend</text>
<polygon fill="#ffffb3" stroke="transparent" points="18,-10 18,-30 38,-30 38,-10 18,-10"/>
<text text-anchor="start" x="41.63" y="-15.4" font-family="Times-12" font-size="14.00"> &#160;Declarations</text>
<polygon fill="#8dd3c7" stroke="transparent" points="131,-10 131,-30 151,-30 151,-10 131,-10"/>
<text text-anchor="start" x="154.73" y="-15.4" font-family="Times-12" font-size="14.00"> &#160;Module</text>
<polygon fill="#80b1d3" stroke="transparent" points="217,-10 217,-30 237,-30 237,-10 217,-10"/>
<text text-anchor="start" x="240.78" y="-15.4" font-family="Times-12" font-size="14.00"> &#160;Bootstrap</text>
<polygon fill="#fdb462" stroke="transparent" points="314,-10 314,-30 334,-30 334,-10 314,-10"/>
<text text-anchor="start" x="337.67" y="-15.4" font-family="Times-12" font-size="14.00"> &#160;Providers</text>
<polygon fill="#fb8072" stroke="transparent" points="410,-10 410,-30 430,-30 430,-10 410,-10"/>
<text text-anchor="start" x="433.73" y="-15.4" font-family="Times-12" font-size="14.00"> &#160;Exports</text>
<g id="clust1" class="cluster">
<title>cluster_CompanyPageModule</title>
<polygon fill="none" stroke="black" stroke-dasharray="1,5" points="8,-70 8,-195 496,-195 496,-70 8,-70"/>
</g>
<g id="clust4" class="cluster">
<title>cluster_CompanyPageModule_imports</title>
<polygon fill="none" stroke="black" points="138,-78 138,-130 488,-130 488,-78 138,-78"/>
</g>
<g id="clust2" class="cluster">
<title>cluster_CompanyPageModule_declarations</title>
<polygon fill="none" stroke="black" points="16,-78 16,-130 130,-130 130,-78 16,-78"/>
</g>
<!-- CompanyPage -->
<g id="node1" class="node">
<title>CompanyPage</title>
<polygon fill="#ffffb3" stroke="black" points="121.65,-122 24.35,-122 24.35,-86 121.65,-86 121.65,-122"/>
<text text-anchor="middle" x="73" y="-99.8" font-family="Times,serif" font-size="14.00">CompanyPage</text>
</g>
<!-- CompanyPageModule -->
<g id="node2" class="node">
<title>CompanyPageModule</title>
<polygon fill="#8dd3c7" stroke="black" points="281.7,-187 278.7,-191 257.7,-191 254.7,-187 140.3,-187 140.3,-151 281.7,-151 281.7,-187"/>
<text text-anchor="middle" x="211" y="-164.8" font-family="Times,serif" font-size="14.00">CompanyPageModule</text>
</g>
<!-- CompanyPage&#45;&gt;CompanyPageModule -->
<g id="edge1" class="edge">
<title>CompanyPage&#45;&gt;CompanyPageModule</title>
<path fill="none" stroke="black" d="M73,-122.11C73,-141.34 73,-169 73,-169 73,-169 130.38,-169 130.38,-169"/>
<polygon fill="black" stroke="black" points="130.38,-172.5 140.38,-169 130.38,-165.5 130.38,-172.5"/>
</g>
<!-- CompanyPageRoutingModule -->
<g id="node3" class="node">
<title>CompanyPageRoutingModule</title>
<polygon fill="#8dd3c7" stroke="black" points="480.32,-122 477.32,-126 456.32,-126 453.32,-122 293.68,-122 293.68,-86 480.32,-86 480.32,-122"/>
<text text-anchor="middle" x="387" y="-99.8" font-family="Times,serif" font-size="14.00">CompanyPageRoutingModule</text>
</g>
<!-- CompanyPageRoutingModule&#45;&gt;CompanyPageModule -->
<g id="edge2" class="edge">
<title>CompanyPageRoutingModule&#45;&gt;CompanyPageModule</title>
<path fill="none" stroke="black" d="M387,-122.11C387,-141.34 387,-169 387,-169 387,-169 291.83,-169 291.83,-169"/>
<polygon fill="black" stroke="black" points="291.83,-165.5 281.83,-169 291.83,-172.5 291.83,-165.5"/>
</g>
<!-- MessageComponent -->
<g id="node4" class="node">
<title>MessageComponent</title>
<polygon fill="#8dd3c7" stroke="black" points="276.31,-122 273.31,-126 252.31,-126 249.31,-122 145.69,-122 145.69,-86 276.31,-86 276.31,-122"/>
<text text-anchor="middle" x="211" y="-99.8" font-family="Times,serif" font-size="14.00">MessageComponent</text>
</g>
<!-- MessageComponent&#45;&gt;CompanyPageModule -->
<g id="edge3" class="edge">
<title>MessageComponent&#45;&gt;CompanyPageModule</title>
<path fill="none" stroke="black" d="M211,-122.11C211,-122.11 211,-140.99 211,-140.99"/>
<polygon fill="black" stroke="black" points="207.5,-140.99 211,-150.99 214.5,-140.99 207.5,-140.99"/>
</g>
</g>
</svg>
