<?xml version="1.0" encoding="UTF-8" standalone="no"?>
<!DOCTYPE svg PUBLIC "-//W3C//DTD SVG 1.1//EN"
 "http://www.w3.org/Graphics/SVG/1.1/DTD/svg11.dtd">
<!-- Generated by graphviz version 2.47.0 (20210316.0004)
 -->
<!-- Title: dependencies Pages: 1 -->
<svg width="504pt" height="211pt"
 viewBox="0.00 0.00 504.00 211.00" xmlns="http://www.w3.org/2000/svg" xmlns:xlink="http://www.w3.org/1999/xlink">
<g id="graph0" class="graph" transform="scale(1 1) rotate(0) translate(4 207)">
<title>dependencies</title>
<polygon fill="white" stroke="transparent" points="-4,4 -4,-207 500,-207 500,4 -4,4"/>
<text text-anchor="start" x="227.01" y="-42.4" font-family="Times-12" font-weight="bold" font-size="14.00">Legend</text>
<polygon fill="#ffffb3" stroke="transparent" points="14,-10 14,-30 34,-30 34,-10 14,-10"/>
<text text-anchor="start" x="37.63" y="-15.4" font-family="Times-12" font-size="14.00"> &#160;Declarations</text>
<polygon fill="#8dd3c7" stroke="transparent" points="127,-10 127,-30 147,-30 147,-10 127,-10"/>
<text text-anchor="start" x="150.73" y="-15.4" font-family="Times-12" font-size="14.00"> &#160;Module</text>
<polygon fill="#80b1d3" stroke="transparent" points="213,-10 213,-30 233,-30 233,-10 213,-10"/>
<text text-anchor="start" x="236.78" y="-15.4" font-family="Times-12" font-size="14.00"> &#160;Bootstrap</text>
<polygon fill="#fdb462" stroke="transparent" points="310,-10 310,-30 330,-30 330,-10 310,-10"/>
<text text-anchor="start" x="333.67" y="-15.4" font-family="Times-12" font-size="14.00"> &#160;Providers</text>
<polygon fill="#fb8072" stroke="transparent" points="406,-10 406,-30 426,-30 426,-10 406,-10"/>
<text text-anchor="start" x="429.73" y="-15.4" font-family="Times-12" font-size="14.00"> &#160;Exports</text>
<g id="clust1" class="cluster">
<title>cluster_ResetPageModule</title>
<polygon fill="none" stroke="black" stroke-dasharray="1,5" points="27.5,-70 27.5,-195 468.5,-195 468.5,-70 27.5,-70"/>
</g>
<g id="clust4" class="cluster">
<title>cluster_ResetPageModule_imports</title>
<polygon fill="none" stroke="black" points="133.5,-78 133.5,-130 460.5,-130 460.5,-78 133.5,-78"/>
</g>
<g id="clust2" class="cluster">
<title>cluster_ResetPageModule_declarations</title>
<polygon fill="none" stroke="black" points="35.5,-78 35.5,-130 125.5,-130 125.5,-78 35.5,-78"/>
</g>
<!-- ResetPage -->
<g id="node1" class="node">
<title>ResetPage</title>
<polygon fill="#ffffb3" stroke="black" points="117.81,-122 43.19,-122 43.19,-86 117.81,-86 117.81,-122"/>
<text text-anchor="middle" x="80.5" y="-99.8" font-family="Times,serif" font-size="14.00">ResetPage</text>
</g>
<!-- ResetPageModule -->
<g id="node2" class="node">
<title>ResetPageModule</title>
<polygon fill="#8dd3c7" stroke="black" points="281.36,-187 278.36,-191 257.36,-191 254.36,-187 163.64,-187 163.64,-151 281.36,-151 281.36,-187"/>
<text text-anchor="middle" x="222.5" y="-164.8" font-family="Times,serif" font-size="14.00">ResetPageModule</text>
</g>
<!-- ResetPage&#45;&gt;ResetPageModule -->
<g id="edge1" class="edge">
<title>ResetPage&#45;&gt;ResetPageModule</title>
<path fill="none" stroke="black" d="M80.5,-122.11C80.5,-141.34 80.5,-169 80.5,-169 80.5,-169 153.51,-169 153.51,-169"/>
<polygon fill="black" stroke="black" points="153.51,-172.5 163.51,-169 153.51,-165.5 153.51,-172.5"/>
</g>
<!-- MessageComponent -->
<g id="node3" class="node">
<title>MessageComponent</title>
<polygon fill="#8dd3c7" stroke="black" points="452.81,-122 449.81,-126 428.81,-126 425.81,-122 322.19,-122 322.19,-86 452.81,-86 452.81,-122"/>
<text text-anchor="middle" x="387.5" y="-99.8" font-family="Times,serif" font-size="14.00">MessageComponent</text>
</g>
<!-- MessageComponent&#45;&gt;ResetPageModule -->
<g id="edge2" class="edge">
<title>MessageComponent&#45;&gt;ResetPageModule</title>
<path fill="none" stroke="black" d="M387.5,-122.11C387.5,-141.34 387.5,-169 387.5,-169 387.5,-169 291.6,-169 291.6,-169"/>
<polygon fill="black" stroke="black" points="291.6,-165.5 281.6,-169 291.6,-172.5 291.6,-165.5"/>
</g>
<!-- ResetPageRoutingModule -->
<g id="node4" class="node">
<title>ResetPageRoutingModule</title>
<polygon fill="#8dd3c7" stroke="black" points="303.98,-122 300.98,-126 279.98,-126 276.98,-122 141.02,-122 141.02,-86 303.98,-86 303.98,-122"/>
<text text-anchor="middle" x="222.5" y="-99.8" font-family="Times,serif" font-size="14.00">ResetPageRoutingModule</text>
</g>
<!-- ResetPageRoutingModule&#45;&gt;ResetPageModule -->
<g id="edge3" class="edge">
<title>ResetPageRoutingModule&#45;&gt;ResetPageModule</title>
<path fill="none" stroke="black" d="M222.5,-122.11C222.5,-122.11 222.5,-140.99 222.5,-140.99"/>
<polygon fill="black" stroke="black" points="219,-140.99 222.5,-150.99 226,-140.99 219,-140.99"/>
</g>
</g>
</svg>
