<?xml version="1.0" encoding="UTF-8" standalone="no"?>
<!DOCTYPE svg PUBLIC "-//W3C//DTD SVG 1.1//EN"
 "http://www.w3.org/Graphics/SVG/1.1/DTD/svg11.dtd">
<!-- Generated by graphviz version 2.47.0 (20210316.0004)
 -->
<!-- Title: dependencies Pages: 1 -->
<svg width="920pt" height="211pt"
 viewBox="0.00 0.00 920.00 211.00" xmlns="http://www.w3.org/2000/svg" xmlns:xlink="http://www.w3.org/1999/xlink">
<g id="graph0" class="graph" transform="scale(1 1) rotate(0) translate(4 207)">
<title>dependencies</title>
<polygon fill="white" stroke="transparent" points="-4,4 -4,-207 916,-207 916,4 -4,4"/>
<text text-anchor="start" x="435.01" y="-42.4" font-family="Times-12" font-weight="bold" font-size="14.00">Legend</text>
<polygon fill="#ffffb3" stroke="transparent" points="222,-10 222,-30 242,-30 242,-10 222,-10"/>
<text text-anchor="start" x="245.63" y="-15.4" font-family="Times-12" font-size="14.00"> &#160;Declarations</text>
<polygon fill="#8dd3c7" stroke="transparent" points="335,-10 335,-30 355,-30 355,-10 335,-10"/>
<text text-anchor="start" x="358.73" y="-15.4" font-family="Times-12" font-size="14.00"> &#160;Module</text>
<polygon fill="#80b1d3" stroke="transparent" points="421,-10 421,-30 441,-30 441,-10 421,-10"/>
<text text-anchor="start" x="444.78" y="-15.4" font-family="Times-12" font-size="14.00"> &#160;Bootstrap</text>
<polygon fill="#fdb462" stroke="transparent" points="518,-10 518,-30 538,-30 538,-10 518,-10"/>
<text text-anchor="start" x="541.67" y="-15.4" font-family="Times-12" font-size="14.00"> &#160;Providers</text>
<polygon fill="#fb8072" stroke="transparent" points="614,-10 614,-30 634,-30 634,-10 614,-10"/>
<text text-anchor="start" x="637.73" y="-15.4" font-family="Times-12" font-size="14.00"> &#160;Exports</text>
<g id="clust1" class="cluster">
<title>cluster_LeafletPageModule</title>
<polygon fill="none" stroke="black" stroke-dasharray="1,5" points="8,-70 8,-195 904,-195 904,-70 8,-70"/>
</g>
<g id="clust2" class="cluster">
<title>cluster_LeafletPageModule_declarations</title>
<polygon fill="none" stroke="black" points="436,-78 436,-130 896,-130 896,-78 436,-78"/>
</g>
<g id="clust6" class="cluster">
<title>cluster_LeafletPageModule_imports</title>
<polygon fill="none" stroke="black" points="16,-78 16,-130 428,-130 428,-78 16,-78"/>
</g>
<!-- LeafletPage -->
<g id="node1" class="node">
<title>LeafletPage</title>
<polygon fill="#ffffb3" stroke="black" points="888.35,-122 805.65,-122 805.65,-86 888.35,-86 888.35,-122"/>
<text text-anchor="middle" x="847" y="-99.8" font-family="Times,serif" font-size="14.00">LeafletPage</text>
</g>
<!-- LeafletPageModule -->
<g id="node4" class="node">
<title>LeafletPageModule</title>
<polygon fill="#8dd3c7" stroke="black" points="580.4,-187 577.4,-191 556.4,-191 553.4,-187 453.6,-187 453.6,-151 580.4,-151 580.4,-187"/>
<text text-anchor="middle" x="517" y="-164.8" font-family="Times,serif" font-size="14.00">LeafletPageModule</text>
</g>
<!-- LeafletPage&#45;&gt;LeafletPageModule -->
<g id="edge1" class="edge">
<title>LeafletPage&#45;&gt;LeafletPageModule</title>
<path fill="none" stroke="black" d="M847,-122.28C847,-143.32 847,-175 847,-175 847,-175 590.24,-175 590.24,-175"/>
<polygon fill="black" stroke="black" points="590.24,-171.5 580.24,-175 590.24,-178.5 590.24,-171.5"/>
</g>
<!-- TechnicianModalComponent -->
<g id="node2" class="node">
<title>TechnicianModalComponent</title>
<polygon fill="#ffffb3" stroke="black" points="788.07,-122 607.93,-122 607.93,-86 788.07,-86 788.07,-122"/>
<text text-anchor="middle" x="698" y="-99.8" font-family="Times,serif" font-size="14.00">TechnicianModalComponent</text>
</g>
<!-- TechnicianModalComponent&#45;&gt;LeafletPageModule -->
<g id="edge2" class="edge">
<title>TechnicianModalComponent&#45;&gt;LeafletPageModule</title>
<path fill="none" stroke="black" d="M698,-122.02C698,-139.37 698,-163 698,-163 698,-163 590.31,-163 590.31,-163"/>
<polygon fill="black" stroke="black" points="590.31,-159.5 580.31,-163 590.3,-166.5 590.31,-159.5"/>
</g>
<!-- ZoneModalComponent -->
<g id="node3" class="node">
<title>ZoneModalComponent</title>
<polygon fill="#ffffb3" stroke="black" points="590.15,-122 443.85,-122 443.85,-86 590.15,-86 590.15,-122"/>
<text text-anchor="middle" x="517" y="-99.8" font-family="Times,serif" font-size="14.00">ZoneModalComponent</text>
</g>
<!-- ZoneModalComponent&#45;&gt;LeafletPageModule -->
<g id="edge3" class="edge">
<title>ZoneModalComponent&#45;&gt;LeafletPageModule</title>
<path fill="none" stroke="black" d="M517,-122.11C517,-122.11 517,-140.99 517,-140.99"/>
<polygon fill="black" stroke="black" points="513.5,-140.99 517,-150.99 520.5,-140.99 513.5,-140.99"/>
</g>
<!-- AddressAutocompleteComponent -->
<g id="node5" class="node">
<title>AddressAutocompleteComponent</title>
<polygon fill="#8dd3c7" stroke="black" points="420.02,-122 417.02,-126 396.02,-126 393.02,-122 213.98,-122 213.98,-86 420.02,-86 420.02,-122"/>
<text text-anchor="middle" x="317" y="-99.8" font-family="Times,serif" font-size="14.00">AddressAutocompleteComponent</text>
</g>
<!-- AddressAutocompleteComponent&#45;&gt;LeafletPageModule -->
<g id="edge4" class="edge">
<title>AddressAutocompleteComponent&#45;&gt;LeafletPageModule</title>
<path fill="none" stroke="black" d="M317,-122.02C317,-139.37 317,-163 317,-163 317,-163 443.72,-163 443.72,-163"/>
<polygon fill="black" stroke="black" points="443.72,-166.5 453.72,-163 443.72,-159.5 443.72,-166.5"/>
</g>
<!-- LeafletPageRoutingModule -->
<g id="node6" class="node">
<title>LeafletPageRoutingModule</title>
<polygon fill="#8dd3c7" stroke="black" points="195.52,-122 192.52,-126 171.52,-126 168.52,-122 24.48,-122 24.48,-86 195.52,-86 195.52,-122"/>
<text text-anchor="middle" x="110" y="-99.8" font-family="Times,serif" font-size="14.00">LeafletPageRoutingModule</text>
</g>
<!-- LeafletPageRoutingModule&#45;&gt;LeafletPageModule -->
<g id="edge5" class="edge">
<title>LeafletPageRoutingModule&#45;&gt;LeafletPageModule</title>
<path fill="none" stroke="black" d="M110,-122.28C110,-143.32 110,-175 110,-175 110,-175 443.41,-175 443.41,-175"/>
<polygon fill="black" stroke="black" points="443.41,-178.5 453.41,-175 443.41,-171.5 443.41,-178.5"/>
</g>
</g>
</svg>
