<?xml version="1.0" encoding="UTF-8" standalone="no"?>
<!DOCTYPE svg PUBLIC "-//W3C//DTD SVG 1.1//EN"
 "http://www.w3.org/Graphics/SVG/1.1/DTD/svg11.dtd">
<!-- Generated by graphviz version 2.47.0 (20210316.0004)
 -->
<!-- Title: dependencies Pages: 1 -->
<svg width="752pt" height="211pt"
 viewBox="0.00 0.00 752.00 211.00" xmlns="http://www.w3.org/2000/svg" xmlns:xlink="http://www.w3.org/1999/xlink">
<g id="graph0" class="graph" transform="scale(1 1) rotate(0) translate(4 207)">
<title>dependencies</title>
<polygon fill="white" stroke="transparent" points="-4,4 -4,-207 748,-207 748,4 -4,4"/>
<text text-anchor="start" x="351.01" y="-42.4" font-family="Times-12" font-weight="bold" font-size="14.00">Legend</text>
<polygon fill="#ffffb3" stroke="transparent" points="138,-10 138,-30 158,-30 158,-10 138,-10"/>
<text text-anchor="start" x="161.63" y="-15.4" font-family="Times-12" font-size="14.00"> &#160;Declarations</text>
<polygon fill="#8dd3c7" stroke="transparent" points="251,-10 251,-30 271,-30 271,-10 251,-10"/>
<text text-anchor="start" x="274.73" y="-15.4" font-family="Times-12" font-size="14.00"> &#160;Module</text>
<polygon fill="#80b1d3" stroke="transparent" points="337,-10 337,-30 357,-30 357,-10 337,-10"/>
<text text-anchor="start" x="360.78" y="-15.4" font-family="Times-12" font-size="14.00"> &#160;Bootstrap</text>
<polygon fill="#fdb462" stroke="transparent" points="434,-10 434,-30 454,-30 454,-10 434,-10"/>
<text text-anchor="start" x="457.67" y="-15.4" font-family="Times-12" font-size="14.00"> &#160;Providers</text>
<polygon fill="#fb8072" stroke="transparent" points="530,-10 530,-30 550,-30 550,-10 530,-10"/>
<text text-anchor="start" x="553.73" y="-15.4" font-family="Times-12" font-size="14.00"> &#160;Exports</text>
<g id="clust1" class="cluster">
<title>cluster_TechnicianPageModule</title>
<polygon fill="none" stroke="black" stroke-dasharray="1,5" points="8,-70 8,-195 736,-195 736,-70 8,-70"/>
</g>
<g id="clust4" class="cluster">
<title>cluster_TechnicianPageModule_imports</title>
<polygon fill="none" stroke="black" points="146,-78 146,-130 728,-130 728,-78 146,-78"/>
</g>
<g id="clust2" class="cluster">
<title>cluster_TechnicianPageModule_declarations</title>
<polygon fill="none" stroke="black" points="16,-78 16,-130 138,-130 138,-78 16,-78"/>
</g>
<!-- TechnicianPage -->
<g id="node1" class="node">
<title>TechnicianPage</title>
<polygon fill="#ffffb3" stroke="black" points="129.9,-122 24.1,-122 24.1,-86 129.9,-86 129.9,-122"/>
<text text-anchor="middle" x="77" y="-99.8" font-family="Times,serif" font-size="14.00">TechnicianPage</text>
</g>
<!-- TechnicianPageModule -->
<g id="node2" class="node">
<title>TechnicianPageModule</title>
<polygon fill="#8dd3c7" stroke="black" points="415.45,-187 412.45,-191 391.45,-191 388.45,-187 266.55,-187 266.55,-151 415.45,-151 415.45,-187"/>
<text text-anchor="middle" x="341" y="-164.8" font-family="Times,serif" font-size="14.00">TechnicianPageModule</text>
</g>
<!-- TechnicianPage&#45;&gt;TechnicianPageModule -->
<g id="edge1" class="edge">
<title>TechnicianPage&#45;&gt;TechnicianPageModule</title>
<path fill="none" stroke="black" d="M77,-122.11C77,-141.34 77,-169 77,-169 77,-169 256.41,-169 256.41,-169"/>
<polygon fill="black" stroke="black" points="256.41,-172.5 266.41,-169 256.41,-165.5 256.41,-172.5"/>
</g>
<!-- AddressAutocompleteComponent -->
<g id="node3" class="node">
<title>AddressAutocompleteComponent</title>
<polygon fill="#8dd3c7" stroke="black" points="720.02,-122 717.02,-126 696.02,-126 693.02,-122 513.98,-122 513.98,-86 720.02,-86 720.02,-122"/>
<text text-anchor="middle" x="617" y="-99.8" font-family="Times,serif" font-size="14.00">AddressAutocompleteComponent</text>
</g>
<!-- AddressAutocompleteComponent&#45;&gt;TechnicianPageModule -->
<g id="edge2" class="edge">
<title>AddressAutocompleteComponent&#45;&gt;TechnicianPageModule</title>
<path fill="none" stroke="black" d="M617,-122.11C617,-141.34 617,-169 617,-169 617,-169 425.69,-169 425.69,-169"/>
<polygon fill="black" stroke="black" points="425.69,-165.5 415.69,-169 425.69,-172.5 425.69,-165.5"/>
</g>
<!-- MessageComponent -->
<g id="node4" class="node">
<title>MessageComponent</title>
<polygon fill="#8dd3c7" stroke="black" points="496.31,-122 493.31,-126 472.31,-126 469.31,-122 365.69,-122 365.69,-86 496.31,-86 496.31,-122"/>
<text text-anchor="middle" x="431" y="-99.8" font-family="Times,serif" font-size="14.00">MessageComponent</text>
</g>
<!-- MessageComponent&#45;&gt;TechnicianPageModule -->
<g id="edge3" class="edge">
<title>MessageComponent&#45;&gt;TechnicianPageModule</title>
<path fill="none" stroke="black" d="M390.66,-122.11C390.66,-122.11 390.66,-140.99 390.66,-140.99"/>
<polygon fill="black" stroke="black" points="387.16,-140.99 390.66,-150.99 394.16,-140.99 387.16,-140.99"/>
</g>
<!-- TechnicianPageRoutingModule -->
<g id="node5" class="node">
<title>TechnicianPageRoutingModule</title>
<polygon fill="#8dd3c7" stroke="black" points="348.07,-122 345.07,-126 324.07,-126 321.07,-122 153.93,-122 153.93,-86 348.07,-86 348.07,-122"/>
<text text-anchor="middle" x="251" y="-99.8" font-family="Times,serif" font-size="14.00">TechnicianPageRoutingModule</text>
</g>
<!-- TechnicianPageRoutingModule&#45;&gt;TechnicianPageModule -->
<g id="edge4" class="edge">
<title>TechnicianPageRoutingModule&#45;&gt;TechnicianPageModule</title>
<path fill="none" stroke="black" d="M307.28,-122.11C307.28,-122.11 307.28,-140.99 307.28,-140.99"/>
<polygon fill="black" stroke="black" points="303.78,-140.99 307.28,-150.99 310.78,-140.99 303.78,-140.99"/>
</g>
</g>
</svg>
