<?xml version="1.0" encoding="UTF-8" standalone="no"?>
<!DOCTYPE svg PUBLIC "-//W3C//DTD SVG 1.1//EN"
 "http://www.w3.org/Graphics/SVG/1.1/DTD/svg11.dtd">
<!-- Generated by graphviz version 2.47.0 (20210316.0004)
 -->
<!-- Title: dependencies Pages: 1 -->
<svg width="621pt" height="211pt"
 viewBox="0.00 0.00 621.00 211.00" xmlns="http://www.w3.org/2000/svg" xmlns:xlink="http://www.w3.org/1999/xlink">
<g id="graph0" class="graph" transform="scale(1 1) rotate(0) translate(4 207)">
<title>dependencies</title>
<polygon fill="white" stroke="transparent" points="-4,4 -4,-207 617,-207 617,4 -4,4"/>
<text text-anchor="start" x="285.51" y="-42.4" font-family="Times-12" font-weight="bold" font-size="14.00">Legend</text>
<polygon fill="#ffffb3" stroke="transparent" points="72.5,-10 72.5,-30 92.5,-30 92.5,-10 72.5,-10"/>
<text text-anchor="start" x="96.13" y="-15.4" font-family="Times-12" font-size="14.00"> &#160;Declarations</text>
<polygon fill="#8dd3c7" stroke="transparent" points="185.5,-10 185.5,-30 205.5,-30 205.5,-10 185.5,-10"/>
<text text-anchor="start" x="209.23" y="-15.4" font-family="Times-12" font-size="14.00"> &#160;Module</text>
<polygon fill="#80b1d3" stroke="transparent" points="271.5,-10 271.5,-30 291.5,-30 291.5,-10 271.5,-10"/>
<text text-anchor="start" x="295.28" y="-15.4" font-family="Times-12" font-size="14.00"> &#160;Bootstrap</text>
<polygon fill="#fdb462" stroke="transparent" points="368.5,-10 368.5,-30 388.5,-30 388.5,-10 368.5,-10"/>
<text text-anchor="start" x="392.17" y="-15.4" font-family="Times-12" font-size="14.00"> &#160;Providers</text>
<polygon fill="#fb8072" stroke="transparent" points="464.5,-10 464.5,-30 484.5,-30 484.5,-10 464.5,-10"/>
<text text-anchor="start" x="488.23" y="-15.4" font-family="Times-12" font-size="14.00"> &#160;Exports</text>
<g id="clust1" class="cluster">
<title>cluster_MesinterventionsPageModule</title>
<polygon fill="none" stroke="black" stroke-dasharray="1,5" points="8,-70 8,-195 605,-195 605,-70 8,-70"/>
</g>
<g id="clust2" class="cluster">
<title>cluster_MesinterventionsPageModule_declarations</title>
<polygon fill="none" stroke="black" points="270,-78 270,-130 597,-130 597,-78 270,-78"/>
</g>
<g id="clust5" class="cluster">
<title>cluster_MesinterventionsPageModule_imports</title>
<polygon fill="none" stroke="black" points="16,-78 16,-130 262,-130 262,-78 16,-78"/>
</g>
<!-- ImageModalComponent -->
<g id="node1" class="node">
<title>ImageModalComponent</title>
<polygon fill="#ffffb3" stroke="black" points="589.36,-122 436.64,-122 436.64,-86 589.36,-86 589.36,-122"/>
<text text-anchor="middle" x="513" y="-99.8" font-family="Times,serif" font-size="14.00">ImageModalComponent</text>
</g>
<!-- MesinterventionsPageModule -->
<g id="node3" class="node">
<title>MesinterventionsPageModule</title>
<polygon fill="#8dd3c7" stroke="black" points="439.96,-187 436.96,-191 415.96,-191 412.96,-187 256.04,-187 256.04,-151 439.96,-151 439.96,-187"/>
<text text-anchor="middle" x="348" y="-164.8" font-family="Times,serif" font-size="14.00">MesinterventionsPageModule</text>
</g>
<!-- ImageModalComponent&#45;&gt;MesinterventionsPageModule -->
<g id="edge1" class="edge">
<title>ImageModalComponent&#45;&gt;MesinterventionsPageModule</title>
<path fill="none" stroke="black" d="M436.55,-104C430.92,-104 427.39,-104 427.39,-104 427.39,-104 427.39,-140.89 427.39,-140.89"/>
<polygon fill="black" stroke="black" points="423.89,-140.89 427.39,-150.89 430.89,-140.89 423.89,-140.89"/>
</g>
<!-- MesinterventionsPage -->
<g id="node2" class="node">
<title>MesinterventionsPage</title>
<polygon fill="#ffffb3" stroke="black" points="418.41,-122 277.59,-122 277.59,-86 418.41,-86 418.41,-122"/>
<text text-anchor="middle" x="348" y="-99.8" font-family="Times,serif" font-size="14.00">MesinterventionsPage</text>
</g>
<!-- MesinterventionsPage&#45;&gt;MesinterventionsPageModule -->
<g id="edge2" class="edge">
<title>MesinterventionsPage&#45;&gt;MesinterventionsPageModule</title>
<path fill="none" stroke="black" d="M348,-122.11C348,-122.11 348,-140.99 348,-140.99"/>
<polygon fill="black" stroke="black" points="344.5,-140.99 348,-150.99 351.5,-140.99 344.5,-140.99"/>
</g>
<!-- MesinterventionsPageRoutingModule -->
<g id="node4" class="node">
<title>MesinterventionsPageRoutingModule</title>
<polygon fill="#8dd3c7" stroke="black" points="253.58,-122 250.58,-126 229.58,-126 226.58,-122 24.42,-122 24.42,-86 253.58,-86 253.58,-122"/>
<text text-anchor="middle" x="139" y="-99.8" font-family="Times,serif" font-size="14.00">MesinterventionsPageRoutingModule</text>
</g>
<!-- MesinterventionsPageRoutingModule&#45;&gt;MesinterventionsPageModule -->
<g id="edge3" class="edge">
<title>MesinterventionsPageRoutingModule&#45;&gt;MesinterventionsPageModule</title>
<path fill="none" stroke="black" d="M253.7,-104C261.83,-104 266.91,-104 266.91,-104 266.91,-104 266.91,-140.89 266.91,-140.89"/>
<polygon fill="black" stroke="black" points="263.41,-140.89 266.91,-150.89 270.41,-140.89 263.41,-140.89"/>
</g>
</g>
</svg>
