<?xml version="1.0" encoding="UTF-8" standalone="no"?>
<!DOCTYPE svg PUBLIC "-//W3C//DTD SVG 1.1//EN"
 "http://www.w3.org/Graphics/SVG/1.1/DTD/svg11.dtd">
<!-- Generated by graphviz version 2.47.0 (20210316.0004)
 -->
<!-- Title: dependencies Pages: 1 -->
<svg width="692pt" height="211pt"
 viewBox="0.00 0.00 692.00 211.00" xmlns="http://www.w3.org/2000/svg" xmlns:xlink="http://www.w3.org/1999/xlink">
<g id="graph0" class="graph" transform="scale(1 1) rotate(0) translate(4 207)">
<title>dependencies</title>
<polygon fill="white" stroke="transparent" points="-4,4 -4,-207 688,-207 688,4 -4,4"/>
<text text-anchor="start" x="321.01" y="-42.4" font-family="Times-12" font-weight="bold" font-size="14.00">Legend</text>
<polygon fill="#ffffb3" stroke="transparent" points="108,-10 108,-30 128,-30 128,-10 108,-10"/>
<text text-anchor="start" x="131.63" y="-15.4" font-family="Times-12" font-size="14.00"> &#160;Declarations</text>
<polygon fill="#8dd3c7" stroke="transparent" points="221,-10 221,-30 241,-30 241,-10 221,-10"/>
<text text-anchor="start" x="244.73" y="-15.4" font-family="Times-12" font-size="14.00"> &#160;Module</text>
<polygon fill="#80b1d3" stroke="transparent" points="307,-10 307,-30 327,-30 327,-10 307,-10"/>
<text text-anchor="start" x="330.78" y="-15.4" font-family="Times-12" font-size="14.00"> &#160;Bootstrap</text>
<polygon fill="#fdb462" stroke="transparent" points="404,-10 404,-30 424,-30 424,-10 404,-10"/>
<text text-anchor="start" x="427.67" y="-15.4" font-family="Times-12" font-size="14.00"> &#160;Providers</text>
<polygon fill="#fb8072" stroke="transparent" points="500,-10 500,-30 520,-30 520,-10 500,-10"/>
<text text-anchor="start" x="523.73" y="-15.4" font-family="Times-12" font-size="14.00"> &#160;Exports</text>
<g id="clust1" class="cluster">
<title>cluster_LoginPageModule</title>
<polygon fill="none" stroke="black" stroke-dasharray="1,5" points="8,-70 8,-195 676,-195 676,-70 8,-70"/>
</g>
<g id="clust3" class="cluster">
<title>cluster_LoginPageModule_imports</title>
<polygon fill="none" stroke="black" points="16,-78 16,-130 668,-130 668,-78 16,-78"/>
</g>
<!-- AddressAutocompleteComponent -->
<g id="node1" class="node">
<title>AddressAutocompleteComponent</title>
<polygon fill="#8dd3c7" stroke="black" points="660.02,-122 657.02,-126 636.02,-126 633.02,-122 453.98,-122 453.98,-86 660.02,-86 660.02,-122"/>
<text text-anchor="middle" x="557" y="-99.8" font-family="Times,serif" font-size="14.00">AddressAutocompleteComponent</text>
</g>
<!-- LoginPageModule -->
<g id="node5" class="node">
<title>LoginPageModule</title>
<polygon fill="#8dd3c7" stroke="black" points="330.2,-187 327.2,-191 306.2,-191 303.2,-187 209.8,-187 209.8,-151 330.2,-151 330.2,-187"/>
<text text-anchor="middle" x="270" y="-164.8" font-family="Times,serif" font-size="14.00">LoginPageModule</text>
</g>
<!-- AddressAutocompleteComponent&#45;&gt;LoginPageModule -->
<g id="edge1" class="edge">
<title>AddressAutocompleteComponent&#45;&gt;LoginPageModule</title>
<path fill="none" stroke="black" d="M557,-122.11C557,-141.34 557,-169 557,-169 557,-169 340.16,-169 340.16,-169"/>
<polygon fill="black" stroke="black" points="340.16,-165.5 330.16,-169 340.16,-172.5 340.16,-165.5"/>
</g>
<!-- LoginPageRoutingModule -->
<g id="node2" class="node">
<title>LoginPageRoutingModule</title>
<polygon fill="#8dd3c7" stroke="black" points="435.82,-122 432.82,-126 411.82,-126 408.82,-122 270.18,-122 270.18,-86 435.82,-86 435.82,-122"/>
<text text-anchor="middle" x="353" y="-99.8" font-family="Times,serif" font-size="14.00">LoginPageRoutingModule</text>
</g>
<!-- LoginPageRoutingModule&#45;&gt;LoginPageModule -->
<g id="edge2" class="edge">
<title>LoginPageRoutingModule&#45;&gt;LoginPageModule</title>
<path fill="none" stroke="black" d="M300.22,-122.11C300.22,-122.11 300.22,-140.99 300.22,-140.99"/>
<polygon fill="black" stroke="black" points="296.72,-140.99 300.22,-150.99 303.72,-140.99 296.72,-140.99"/>
</g>
<!-- MessageComponent -->
<g id="node3" class="node">
<title>MessageComponent</title>
<polygon fill="#8dd3c7" stroke="black" points="252.31,-122 249.31,-126 228.31,-126 225.31,-122 121.69,-122 121.69,-86 252.31,-86 252.31,-122"/>
<text text-anchor="middle" x="187" y="-99.8" font-family="Times,serif" font-size="14.00">MessageComponent</text>
</g>
<!-- MessageComponent&#45;&gt;LoginPageModule -->
<g id="edge3" class="edge">
<title>MessageComponent&#45;&gt;LoginPageModule</title>
<path fill="none" stroke="black" d="M231.03,-122.11C231.03,-122.11 231.03,-140.99 231.03,-140.99"/>
<polygon fill="black" stroke="black" points="227.53,-140.99 231.03,-150.99 234.53,-140.99 227.53,-140.99"/>
</g>
<!-- RouterLink -->
<g id="node4" class="node">
<title>RouterLink</title>
<polygon fill="#8dd3c7" stroke="black" points="104.05,-122 101.05,-126 80.05,-126 77.05,-122 23.95,-122 23.95,-86 104.05,-86 104.05,-122"/>
<text text-anchor="middle" x="64" y="-99.8" font-family="Times,serif" font-size="14.00">RouterLink</text>
</g>
<!-- RouterLink&#45;&gt;LoginPageModule -->
<g id="edge4" class="edge">
<title>RouterLink&#45;&gt;LoginPageModule</title>
<path fill="none" stroke="black" d="M64,-122.11C64,-141.34 64,-169 64,-169 64,-169 199.86,-169 199.86,-169"/>
<polygon fill="black" stroke="black" points="199.86,-172.5 209.86,-169 199.86,-165.5 199.86,-172.5"/>
</g>
</g>
</svg>
