<?xml version="1.0" encoding="UTF-8" standalone="no"?>
<!DOCTYPE svg PUBLIC "-//W3C//DTD SVG 1.1//EN"
 "http://www.w3.org/Graphics/SVG/1.1/DTD/svg11.dtd">
<!-- Generated by graphviz version 2.47.0 (20210316.0004)
 -->
<!-- Title: dependencies Pages: 1 -->
<svg width="572pt" height="211pt"
 viewBox="0.00 0.00 572.00 211.00" xmlns="http://www.w3.org/2000/svg" xmlns:xlink="http://www.w3.org/1999/xlink">
<g id="graph0" class="graph" transform="scale(1 1) rotate(0) translate(4 207)">
<title>dependencies</title>
<polygon fill="white" stroke="transparent" points="-4,4 -4,-207 568,-207 568,4 -4,4"/>
<text text-anchor="start" x="261.01" y="-42.4" font-family="Times-12" font-weight="bold" font-size="14.00">Legend</text>
<polygon fill="#ffffb3" stroke="transparent" points="48,-10 48,-30 68,-30 68,-10 48,-10"/>
<text text-anchor="start" x="71.63" y="-15.4" font-family="Times-12" font-size="14.00"> &#160;Declarations</text>
<polygon fill="#8dd3c7" stroke="transparent" points="161,-10 161,-30 181,-30 181,-10 161,-10"/>
<text text-anchor="start" x="184.73" y="-15.4" font-family="Times-12" font-size="14.00"> &#160;Module</text>
<polygon fill="#80b1d3" stroke="transparent" points="247,-10 247,-30 267,-30 267,-10 247,-10"/>
<text text-anchor="start" x="270.78" y="-15.4" font-family="Times-12" font-size="14.00"> &#160;Bootstrap</text>
<polygon fill="#fdb462" stroke="transparent" points="344,-10 344,-30 364,-30 364,-10 344,-10"/>
<text text-anchor="start" x="367.67" y="-15.4" font-family="Times-12" font-size="14.00"> &#160;Providers</text>
<polygon fill="#fb8072" stroke="transparent" points="440,-10 440,-30 460,-30 460,-10 440,-10"/>
<text text-anchor="start" x="463.73" y="-15.4" font-family="Times-12" font-size="14.00"> &#160;Exports</text>
<g id="clust1" class="cluster">
<title>cluster_ResetPasswordPageModule</title>
<polygon fill="none" stroke="black" stroke-dasharray="1,5" points="8,-70 8,-195 556,-195 556,-70 8,-70"/>
</g>
<g id="clust4" class="cluster">
<title>cluster_ResetPasswordPageModule_imports</title>
<polygon fill="none" stroke="black" points="168,-78 168,-130 548,-130 548,-78 168,-78"/>
</g>
<g id="clust2" class="cluster">
<title>cluster_ResetPasswordPageModule_declarations</title>
<polygon fill="none" stroke="black" points="16,-78 16,-130 160,-130 160,-78 16,-78"/>
</g>
<!-- ResetPasswordPage -->
<g id="node1" class="node">
<title>ResetPasswordPage</title>
<polygon fill="#ffffb3" stroke="black" points="151.97,-122 24.03,-122 24.03,-86 151.97,-86 151.97,-122"/>
<text text-anchor="middle" x="88" y="-99.8" font-family="Times,serif" font-size="14.00">ResetPasswordPage</text>
</g>
<!-- ResetPasswordPageModule -->
<g id="node2" class="node">
<title>ResetPasswordPageModule</title>
<polygon fill="#8dd3c7" stroke="black" points="369.52,-187 366.52,-191 345.52,-191 342.52,-187 198.48,-187 198.48,-151 369.52,-151 369.52,-187"/>
<text text-anchor="middle" x="284" y="-164.8" font-family="Times,serif" font-size="14.00">ResetPasswordPageModule</text>
</g>
<!-- ResetPasswordPage&#45;&gt;ResetPasswordPageModule -->
<g id="edge1" class="edge">
<title>ResetPasswordPage&#45;&gt;ResetPasswordPageModule</title>
<path fill="none" stroke="black" d="M88,-122.11C88,-141.34 88,-169 88,-169 88,-169 188.32,-169 188.32,-169"/>
<polygon fill="black" stroke="black" points="188.32,-172.5 198.32,-169 188.32,-165.5 188.32,-172.5"/>
</g>
<!-- MessageComponent -->
<g id="node3" class="node">
<title>MessageComponent</title>
<polygon fill="#8dd3c7" stroke="black" points="540.31,-122 537.31,-126 516.31,-126 513.31,-122 409.69,-122 409.69,-86 540.31,-86 540.31,-122"/>
<text text-anchor="middle" x="475" y="-99.8" font-family="Times,serif" font-size="14.00">MessageComponent</text>
</g>
<!-- MessageComponent&#45;&gt;ResetPasswordPageModule -->
<g id="edge2" class="edge">
<title>MessageComponent&#45;&gt;ResetPasswordPageModule</title>
<path fill="none" stroke="black" d="M475,-122.11C475,-141.34 475,-169 475,-169 475,-169 379.72,-169 379.72,-169"/>
<polygon fill="black" stroke="black" points="379.72,-165.5 369.72,-169 379.72,-172.5 379.72,-165.5"/>
</g>
<!-- ResetPasswordPageRoutingModule -->
<g id="node4" class="node">
<title>ResetPasswordPageRoutingModule</title>
<polygon fill="#8dd3c7" stroke="black" points="392.13,-122 389.13,-126 368.13,-126 365.13,-122 175.87,-122 175.87,-86 392.13,-86 392.13,-122"/>
<text text-anchor="middle" x="284" y="-99.8" font-family="Times,serif" font-size="14.00">ResetPasswordPageRoutingModule</text>
</g>
<!-- ResetPasswordPageRoutingModule&#45;&gt;ResetPasswordPageModule -->
<g id="edge3" class="edge">
<title>ResetPasswordPageRoutingModule&#45;&gt;ResetPasswordPageModule</title>
<path fill="none" stroke="black" d="M284,-122.11C284,-122.11 284,-140.99 284,-140.99"/>
<polygon fill="black" stroke="black" points="280.5,-140.99 284,-150.99 287.5,-140.99 280.5,-140.99"/>
</g>
</g>
</svg>
