<?xml version="1.0" encoding="UTF-8" standalone="no"?>
<!DOCTYPE svg PUBLIC "-//W3C//DTD SVG 1.1//EN"
 "http://www.w3.org/Graphics/SVG/1.1/DTD/svg11.dtd">
<!-- Generated by graphviz version 2.47.0 (20210316.0004)
 -->
<!-- Title: dependencies Pages: 1 -->
<svg width="504pt" height="211pt"
 viewBox="0.00 0.00 504.00 211.00" xmlns="http://www.w3.org/2000/svg" xmlns:xlink="http://www.w3.org/1999/xlink">
<g id="graph0" class="graph" transform="scale(1 1) rotate(0) translate(4 207)">
<title>dependencies</title>
<polygon fill="white" stroke="transparent" points="-4,4 -4,-207 500,-207 500,4 -4,4"/>
<text text-anchor="start" x="227.01" y="-42.4" font-family="Times-12" font-weight="bold" font-size="14.00">Legend</text>
<polygon fill="#ffffb3" stroke="transparent" points="14,-10 14,-30 34,-30 34,-10 14,-10"/>
<text text-anchor="start" x="37.63" y="-15.4" font-family="Times-12" font-size="14.00"> &#160;Declarations</text>
<polygon fill="#8dd3c7" stroke="transparent" points="127,-10 127,-30 147,-30 147,-10 127,-10"/>
<text text-anchor="start" x="150.73" y="-15.4" font-family="Times-12" font-size="14.00"> &#160;Module</text>
<polygon fill="#80b1d3" stroke="transparent" points="213,-10 213,-30 233,-30 233,-10 213,-10"/>
<text text-anchor="start" x="236.78" y="-15.4" font-family="Times-12" font-size="14.00"> &#160;Bootstrap</text>
<polygon fill="#fdb462" stroke="transparent" points="310,-10 310,-30 330,-30 330,-10 310,-10"/>
<text text-anchor="start" x="333.67" y="-15.4" font-family="Times-12" font-size="14.00"> &#160;Providers</text>
<polygon fill="#fb8072" stroke="transparent" points="406,-10 406,-30 426,-30 426,-10 406,-10"/>
<text text-anchor="start" x="429.73" y="-15.4" font-family="Times-12" font-size="14.00"> &#160;Exports</text>
<g id="clust1" class="cluster">
<title>cluster_TechnicianListPageModule</title>
<polygon fill="none" stroke="black" stroke-dasharray="1,5" points="48,-70 48,-195 448,-195 448,-70 48,-70"/>
</g>
<g id="clust2" class="cluster">
<title>cluster_TechnicianListPageModule_declarations</title>
<polygon fill="none" stroke="black" points="296,-78 296,-130 440,-130 440,-78 296,-78"/>
</g>
<g id="clust4" class="cluster">
<title>cluster_TechnicianListPageModule_imports</title>
<polygon fill="none" stroke="black" points="56,-78 56,-130 288,-130 288,-78 56,-78"/>
</g>
<!-- TechnicianListPage -->
<g id="node1" class="node">
<title>TechnicianListPage</title>
<polygon fill="#ffffb3" stroke="black" points="431.68,-122 304.32,-122 304.32,-86 431.68,-86 431.68,-122"/>
<text text-anchor="middle" x="368" y="-99.8" font-family="Times,serif" font-size="14.00">TechnicianListPage</text>
</g>
<!-- TechnicianListPageModule -->
<g id="node2" class="node">
<title>TechnicianListPageModule</title>
<polygon fill="#8dd3c7" stroke="black" points="348.23,-187 345.23,-191 324.23,-191 321.23,-187 177.77,-187 177.77,-151 348.23,-151 348.23,-187"/>
<text text-anchor="middle" x="263" y="-164.8" font-family="Times,serif" font-size="14.00">TechnicianListPageModule</text>
</g>
<!-- TechnicianListPage&#45;&gt;TechnicianListPageModule -->
<g id="edge1" class="edge">
<title>TechnicianListPage&#45;&gt;TechnicianListPageModule</title>
<path fill="none" stroke="black" d="M326.39,-122.11C326.39,-122.11 326.39,-140.99 326.39,-140.99"/>
<polygon fill="black" stroke="black" points="322.89,-140.99 326.39,-150.99 329.89,-140.99 322.89,-140.99"/>
</g>
<!-- TechnicianListPageRoutingModule -->
<g id="node3" class="node">
<title>TechnicianListPageRoutingModule</title>
<polygon fill="#8dd3c7" stroke="black" points="279.85,-122 276.85,-126 255.85,-126 252.85,-122 64.15,-122 64.15,-86 279.85,-86 279.85,-122"/>
<text text-anchor="middle" x="172" y="-99.8" font-family="Times,serif" font-size="14.00">TechnicianListPageRoutingModule</text>
</g>
<!-- TechnicianListPageRoutingModule&#45;&gt;TechnicianListPageModule -->
<g id="edge2" class="edge">
<title>TechnicianListPageRoutingModule&#45;&gt;TechnicianListPageModule</title>
<path fill="none" stroke="black" d="M228.78,-122.11C228.78,-122.11 228.78,-140.99 228.78,-140.99"/>
<polygon fill="black" stroke="black" points="225.28,-140.99 228.78,-150.99 232.28,-140.99 225.28,-140.99"/>
</g>
</g>
</svg>
