<?xml version="1.0" encoding="UTF-8" standalone="no"?>
<!DOCTYPE svg PUBLIC "-//W3C//DTD SVG 1.1//EN"
 "http://www.w3.org/Graphics/SVG/1.1/DTD/svg11.dtd">
<!-- Generated by graphviz version 2.47.0 (20210316.0004)
 -->
<!-- Title: dependencies Pages: 1 -->
<svg width="526pt" height="211pt"
 viewBox="0.00 0.00 526.00 211.00" xmlns="http://www.w3.org/2000/svg" xmlns:xlink="http://www.w3.org/1999/xlink">
<g id="graph0" class="graph" transform="scale(1 1) rotate(0) translate(4 207)">
<title>dependencies</title>
<polygon fill="white" stroke="transparent" points="-4,4 -4,-207 522,-207 522,4 -4,4"/>
<text text-anchor="start" x="238.01" y="-42.4" font-family="Times-12" font-weight="bold" font-size="14.00">Legend</text>
<polygon fill="#ffffb3" stroke="transparent" points="25,-10 25,-30 45,-30 45,-10 25,-10"/>
<text text-anchor="start" x="48.63" y="-15.4" font-family="Times-12" font-size="14.00"> &#160;Declarations</text>
<polygon fill="#8dd3c7" stroke="transparent" points="138,-10 138,-30 158,-30 158,-10 138,-10"/>
<text text-anchor="start" x="161.73" y="-15.4" font-family="Times-12" font-size="14.00"> &#160;Module</text>
<polygon fill="#80b1d3" stroke="transparent" points="224,-10 224,-30 244,-30 244,-10 224,-10"/>
<text text-anchor="start" x="247.78" y="-15.4" font-family="Times-12" font-size="14.00"> &#160;Bootstrap</text>
<polygon fill="#fdb462" stroke="transparent" points="321,-10 321,-30 341,-30 341,-10 321,-10"/>
<text text-anchor="start" x="344.67" y="-15.4" font-family="Times-12" font-size="14.00"> &#160;Providers</text>
<polygon fill="#fb8072" stroke="transparent" points="417,-10 417,-30 437,-30 437,-10 417,-10"/>
<text text-anchor="start" x="440.73" y="-15.4" font-family="Times-12" font-size="14.00"> &#160;Exports</text>
<g id="clust1" class="cluster">
<title>cluster_LeafletListPageModule</title>
<polygon fill="none" stroke="black" stroke-dasharray="1,5" points="8,-70 8,-195 510,-195 510,-70 8,-70"/>
</g>
<g id="clust2" class="cluster">
<title>cluster_LeafletListPageModule_declarations</title>
<polygon fill="none" stroke="black" points="382,-78 382,-130 502,-130 502,-78 382,-78"/>
</g>
<g id="clust4" class="cluster">
<title>cluster_LeafletListPageModule_imports</title>
<polygon fill="none" stroke="black" points="16,-78 16,-130 374,-130 374,-78 16,-78"/>
</g>
<!-- LeafletListPage -->
<g id="node1" class="node">
<title>LeafletListPage</title>
<polygon fill="#ffffb3" stroke="black" points="494.13,-122 389.87,-122 389.87,-86 494.13,-86 494.13,-122"/>
<text text-anchor="middle" x="442" y="-99.8" font-family="Times,serif" font-size="14.00">LeafletListPage</text>
</g>
<!-- LeafletListPageModule -->
<g id="node2" class="node">
<title>LeafletListPageModule</title>
<polygon fill="#8dd3c7" stroke="black" points="343.18,-187 340.18,-191 319.18,-191 316.18,-187 194.82,-187 194.82,-151 343.18,-151 343.18,-187"/>
<text text-anchor="middle" x="269" y="-164.8" font-family="Times,serif" font-size="14.00">LeafletListPageModule</text>
</g>
<!-- LeafletListPage&#45;&gt;LeafletListPageModule -->
<g id="edge1" class="edge">
<title>LeafletListPage&#45;&gt;LeafletListPageModule</title>
<path fill="none" stroke="black" d="M442,-122.11C442,-141.34 442,-169 442,-169 442,-169 353.12,-169 353.12,-169"/>
<polygon fill="black" stroke="black" points="353.12,-165.5 343.12,-169 353.12,-172.5 353.12,-165.5"/>
</g>
<!-- LeafletListPageRoutingModule -->
<g id="node3" class="node">
<title>LeafletListPageRoutingModule</title>
<polygon fill="#8dd3c7" stroke="black" points="365.8,-122 362.8,-126 341.8,-126 338.8,-122 172.2,-122 172.2,-86 365.8,-86 365.8,-122"/>
<text text-anchor="middle" x="269" y="-99.8" font-family="Times,serif" font-size="14.00">LeafletListPageRoutingModule</text>
</g>
<!-- LeafletListPageRoutingModule&#45;&gt;LeafletListPageModule -->
<g id="edge2" class="edge">
<title>LeafletListPageRoutingModule&#45;&gt;LeafletListPageModule</title>
<path fill="none" stroke="black" d="M269,-122.11C269,-122.11 269,-140.99 269,-140.99"/>
<polygon fill="black" stroke="black" points="265.5,-140.99 269,-150.99 272.5,-140.99 265.5,-140.99"/>
</g>
<!-- MessageComponent -->
<g id="node4" class="node">
<title>MessageComponent</title>
<polygon fill="#8dd3c7" stroke="black" points="154.31,-122 151.31,-126 130.31,-126 127.31,-122 23.69,-122 23.69,-86 154.31,-86 154.31,-122"/>
<text text-anchor="middle" x="89" y="-99.8" font-family="Times,serif" font-size="14.00">MessageComponent</text>
</g>
<!-- MessageComponent&#45;&gt;LeafletListPageModule -->
<g id="edge3" class="edge">
<title>MessageComponent&#45;&gt;LeafletListPageModule</title>
<path fill="none" stroke="black" d="M89,-122.11C89,-141.34 89,-169 89,-169 89,-169 184.75,-169 184.75,-169"/>
<polygon fill="black" stroke="black" points="184.75,-172.5 194.75,-169 184.75,-165.5 184.75,-172.5"/>
</g>
</g>
</svg>
