<?xml version="1.0" encoding="UTF-8" standalone="no"?>
<!DOCTYPE svg PUBLIC "-//W3C//DTD SVG 1.1//EN"
 "http://www.w3.org/Graphics/SVG/1.1/DTD/svg11.dtd">
<!-- Generated by graphviz version 2.47.0 (20210316.0004)
 -->
<!-- Title: dependencies Pages: 1 -->
<svg width="692pt" height="211pt"
 viewBox="0.00 0.00 692.00 211.00" xmlns="http://www.w3.org/2000/svg" xmlns:xlink="http://www.w3.org/1999/xlink">
<g id="graph0" class="graph" transform="scale(1 1) rotate(0) translate(4 207)">
<title>dependencies</title>
<polygon fill="white" stroke="transparent" points="-4,4 -4,-207 688,-207 688,4 -4,4"/>
<text text-anchor="start" x="321.01" y="-42.4" font-family="Times-12" font-weight="bold" font-size="14.00">Legend</text>
<polygon fill="#ffffb3" stroke="transparent" points="108,-10 108,-30 128,-30 128,-10 108,-10"/>
<text text-anchor="start" x="131.63" y="-15.4" font-family="Times-12" font-size="14.00"> &#160;Declarations</text>
<polygon fill="#8dd3c7" stroke="transparent" points="221,-10 221,-30 241,-30 241,-10 221,-10"/>
<text text-anchor="start" x="244.73" y="-15.4" font-family="Times-12" font-size="14.00"> &#160;Module</text>
<polygon fill="#80b1d3" stroke="transparent" points="307,-10 307,-30 327,-30 327,-10 307,-10"/>
<text text-anchor="start" x="330.78" y="-15.4" font-family="Times-12" font-size="14.00"> &#160;Bootstrap</text>
<polygon fill="#fdb462" stroke="transparent" points="404,-10 404,-30 424,-30 424,-10 404,-10"/>
<text text-anchor="start" x="427.67" y="-15.4" font-family="Times-12" font-size="14.00"> &#160;Providers</text>
<polygon fill="#fb8072" stroke="transparent" points="500,-10 500,-30 520,-30 520,-10 500,-10"/>
<text text-anchor="start" x="523.73" y="-15.4" font-family="Times-12" font-size="14.00"> &#160;Exports</text>
<g id="clust1" class="cluster">
<title>cluster_UsersPageModule</title>
<polygon fill="none" stroke="black" stroke-dasharray="1,5" points="8,-70 8,-195 676,-195 676,-70 8,-70"/>
</g>
<g id="clust4" class="cluster">
<title>cluster_UsersPageModule_imports</title>
<polygon fill="none" stroke="black" points="116,-78 116,-130 668,-130 668,-78 116,-78"/>
</g>
<g id="clust2" class="cluster">
<title>cluster_UsersPageModule_declarations</title>
<polygon fill="none" stroke="black" points="16,-78 16,-130 108,-130 108,-78 16,-78"/>
</g>
<!-- UsersPage -->
<g id="node1" class="node">
<title>UsersPage</title>
<polygon fill="#ffffb3" stroke="black" points="99.58,-122 24.42,-122 24.42,-86 99.58,-86 99.58,-122"/>
<text text-anchor="middle" x="62" y="-99.8" font-family="Times,serif" font-size="14.00">UsersPage</text>
</g>
<!-- UsersPageModule -->
<g id="node2" class="node">
<title>UsersPageModule</title>
<polygon fill="#8dd3c7" stroke="black" points="347.13,-187 344.13,-191 323.13,-191 320.13,-187 228.87,-187 228.87,-151 347.13,-151 347.13,-187"/>
<text text-anchor="middle" x="288" y="-164.8" font-family="Times,serif" font-size="14.00">UsersPageModule</text>
</g>
<!-- UsersPage&#45;&gt;UsersPageModule -->
<g id="edge1" class="edge">
<title>UsersPage&#45;&gt;UsersPageModule</title>
<path fill="none" stroke="black" d="M62,-122.11C62,-141.34 62,-169 62,-169 62,-169 218.62,-169 218.62,-169"/>
<polygon fill="black" stroke="black" points="218.62,-172.5 228.62,-169 218.62,-165.5 218.62,-172.5"/>
</g>
<!-- AddressAutocompleteComponent -->
<g id="node3" class="node">
<title>AddressAutocompleteComponent</title>
<polygon fill="#8dd3c7" stroke="black" points="660.02,-122 657.02,-126 636.02,-126 633.02,-122 453.98,-122 453.98,-86 660.02,-86 660.02,-122"/>
<text text-anchor="middle" x="557" y="-99.8" font-family="Times,serif" font-size="14.00">AddressAutocompleteComponent</text>
</g>
<!-- AddressAutocompleteComponent&#45;&gt;UsersPageModule -->
<g id="edge2" class="edge">
<title>AddressAutocompleteComponent&#45;&gt;UsersPageModule</title>
<path fill="none" stroke="black" d="M557,-122.11C557,-141.34 557,-169 557,-169 557,-169 357.37,-169 357.37,-169"/>
<polygon fill="black" stroke="black" points="357.37,-165.5 347.37,-169 357.37,-172.5 357.37,-165.5"/>
</g>
<!-- MessageComponent -->
<g id="node4" class="node">
<title>MessageComponent</title>
<polygon fill="#8dd3c7" stroke="black" points="436.31,-122 433.31,-126 412.31,-126 409.31,-122 305.69,-122 305.69,-86 436.31,-86 436.31,-122"/>
<text text-anchor="middle" x="371" y="-99.8" font-family="Times,serif" font-size="14.00">MessageComponent</text>
</g>
<!-- MessageComponent&#45;&gt;UsersPageModule -->
<g id="edge3" class="edge">
<title>MessageComponent&#45;&gt;UsersPageModule</title>
<path fill="none" stroke="black" d="M326.58,-122.11C326.58,-122.11 326.58,-140.99 326.58,-140.99"/>
<polygon fill="black" stroke="black" points="323.08,-140.99 326.58,-150.99 330.08,-140.99 323.08,-140.99"/>
</g>
<!-- UsersPageRoutingModule -->
<g id="node5" class="node">
<title>UsersPageRoutingModule</title>
<polygon fill="#8dd3c7" stroke="black" points="287.75,-122 284.75,-126 263.75,-126 260.75,-122 124.25,-122 124.25,-86 287.75,-86 287.75,-122"/>
<text text-anchor="middle" x="206" y="-99.8" font-family="Times,serif" font-size="14.00">UsersPageRoutingModule</text>
</g>
<!-- UsersPageRoutingModule&#45;&gt;UsersPageModule -->
<g id="edge4" class="edge">
<title>UsersPageRoutingModule&#45;&gt;UsersPageModule</title>
<path fill="none" stroke="black" d="M258.28,-122.11C258.28,-122.11 258.28,-140.99 258.28,-140.99"/>
<polygon fill="black" stroke="black" points="254.78,-140.99 258.28,-150.99 261.78,-140.99 254.78,-140.99"/>
</g>
</g>
</svg>
