<?xml version="1.0" encoding="UTF-8" standalone="no"?>
<!DOCTYPE svg PUBLIC "-//W3C//DTD SVG 1.1//EN"
 "http://www.w3.org/Graphics/SVG/1.1/DTD/svg11.dtd">
<!-- Generated by graphviz version 2.47.0 (20210316.0004)
 -->
<!-- Title: dependencies Pages: 1 -->
<svg width="504pt" height="211pt"
 viewBox="0.00 0.00 504.00 211.00" xmlns="http://www.w3.org/2000/svg" xmlns:xlink="http://www.w3.org/1999/xlink">
<g id="graph0" class="graph" transform="scale(1 1) rotate(0) translate(4 207)">
<title>dependencies</title>
<polygon fill="white" stroke="transparent" points="-4,4 -4,-207 500,-207 500,4 -4,4"/>
<text text-anchor="start" x="227.01" y="-42.4" font-family="Times-12" font-weight="bold" font-size="14.00">Legend</text>
<polygon fill="#ffffb3" stroke="transparent" points="14,-10 14,-30 34,-30 34,-10 14,-10"/>
<text text-anchor="start" x="37.63" y="-15.4" font-family="Times-12" font-size="14.00"> &#160;Declarations</text>
<polygon fill="#8dd3c7" stroke="transparent" points="127,-10 127,-30 147,-30 147,-10 127,-10"/>
<text text-anchor="start" x="150.73" y="-15.4" font-family="Times-12" font-size="14.00"> &#160;Module</text>
<polygon fill="#80b1d3" stroke="transparent" points="213,-10 213,-30 233,-30 233,-10 213,-10"/>
<text text-anchor="start" x="236.78" y="-15.4" font-family="Times-12" font-size="14.00"> &#160;Bootstrap</text>
<polygon fill="#fdb462" stroke="transparent" points="310,-10 310,-30 330,-30 330,-10 310,-10"/>
<text text-anchor="start" x="333.67" y="-15.4" font-family="Times-12" font-size="14.00"> &#160;Providers</text>
<polygon fill="#fb8072" stroke="transparent" points="406,-10 406,-30 426,-30 426,-10 406,-10"/>
<text text-anchor="start" x="429.73" y="-15.4" font-family="Times-12" font-size="14.00"> &#160;Exports</text>
<g id="clust1" class="cluster">
<title>cluster_PlanningModelsListPageModule</title>
<polygon fill="none" stroke="black" stroke-dasharray="1,5" points="19,-70 19,-195 477,-195 477,-70 19,-70"/>
</g>
<g id="clust4" class="cluster">
<title>cluster_PlanningModelsListPageModule_imports</title>
<polygon fill="none" stroke="black" points="207,-78 207,-130 469,-130 469,-78 207,-78"/>
</g>
<g id="clust2" class="cluster">
<title>cluster_PlanningModelsListPageModule_declarations</title>
<polygon fill="none" stroke="black" points="27,-78 27,-130 199,-130 199,-78 27,-78"/>
</g>
<!-- PlanningModelsListPage -->
<g id="node1" class="node">
<title>PlanningModelsListPage</title>
<polygon fill="#ffffb3" stroke="black" points="191.26,-122 34.74,-122 34.74,-86 191.26,-86 191.26,-122"/>
<text text-anchor="middle" x="113" y="-99.8" font-family="Times,serif" font-size="14.00">PlanningModelsListPage</text>
</g>
<!-- PlanningModelsListPageModule -->
<g id="node2" class="node">
<title>PlanningModelsListPageModule</title>
<polygon fill="#8dd3c7" stroke="black" points="332.31,-187 329.31,-191 308.31,-191 305.31,-187 131.69,-187 131.69,-151 332.31,-151 332.31,-187"/>
<text text-anchor="middle" x="232" y="-164.8" font-family="Times,serif" font-size="14.00">PlanningModelsListPageModule</text>
</g>
<!-- PlanningModelsListPage&#45;&gt;PlanningModelsListPageModule -->
<g id="edge1" class="edge">
<title>PlanningModelsListPage&#45;&gt;PlanningModelsListPageModule</title>
<path fill="none" stroke="black" d="M161.61,-122.11C161.61,-122.11 161.61,-140.99 161.61,-140.99"/>
<polygon fill="black" stroke="black" points="158.11,-140.99 161.61,-150.99 165.11,-140.99 158.11,-140.99"/>
</g>
<!-- PlanningModelsListPageRoutingModule -->
<g id="node3" class="node">
<title>PlanningModelsListPageRoutingModule</title>
<polygon fill="#8dd3c7" stroke="black" points="460.93,-122 457.93,-126 436.93,-126 433.93,-122 215.07,-122 215.07,-86 460.93,-86 460.93,-122"/>
<text text-anchor="middle" x="338" y="-99.8" font-family="Times,serif" font-size="14.00">PlanningModelsListPageRoutingModule</text>
</g>
<!-- PlanningModelsListPageRoutingModule&#45;&gt;PlanningModelsListPageModule -->
<g id="edge2" class="edge">
<title>PlanningModelsListPageRoutingModule&#45;&gt;PlanningModelsListPageModule</title>
<path fill="none" stroke="black" d="M273.72,-122.11C273.72,-122.11 273.72,-140.99 273.72,-140.99"/>
<polygon fill="black" stroke="black" points="270.22,-140.99 273.72,-150.99 277.22,-140.99 270.22,-140.99"/>
</g>
</g>
</svg>
