<?xml version="1.0" encoding="UTF-8" standalone="no"?>
<!DOCTYPE svg PUBLIC "-//W3C//DTD SVG 1.1//EN"
 "http://www.w3.org/Graphics/SVG/1.1/DTD/svg11.dtd">
<!-- Generated by graphviz version 2.47.0 (20210316.0004)
 -->
<!-- Title: dependencies Pages: 1 -->
<svg width="504pt" height="211pt"
 viewBox="0.00 0.00 504.00 211.00" xmlns="http://www.w3.org/2000/svg" xmlns:xlink="http://www.w3.org/1999/xlink">
<g id="graph0" class="graph" transform="scale(1 1) rotate(0) translate(4 207)">
<title>dependencies</title>
<polygon fill="white" stroke="transparent" points="-4,4 -4,-207 500,-207 500,4 -4,4"/>
<text text-anchor="start" x="227.01" y="-42.4" font-family="Times-12" font-weight="bold" font-size="14.00">Legend</text>
<polygon fill="#ffffb3" stroke="transparent" points="14,-10 14,-30 34,-30 34,-10 14,-10"/>
<text text-anchor="start" x="37.63" y="-15.4" font-family="Times-12" font-size="14.00"> &#160;Declarations</text>
<polygon fill="#8dd3c7" stroke="transparent" points="127,-10 127,-30 147,-30 147,-10 127,-10"/>
<text text-anchor="start" x="150.73" y="-15.4" font-family="Times-12" font-size="14.00"> &#160;Module</text>
<polygon fill="#80b1d3" stroke="transparent" points="213,-10 213,-30 233,-30 233,-10 213,-10"/>
<text text-anchor="start" x="236.78" y="-15.4" font-family="Times-12" font-size="14.00"> &#160;Bootstrap</text>
<polygon fill="#fdb462" stroke="transparent" points="310,-10 310,-30 330,-30 330,-10 310,-10"/>
<text text-anchor="start" x="333.67" y="-15.4" font-family="Times-12" font-size="14.00"> &#160;Providers</text>
<polygon fill="#fb8072" stroke="transparent" points="406,-10 406,-30 426,-30 426,-10 406,-10"/>
<text text-anchor="start" x="429.73" y="-15.4" font-family="Times-12" font-size="14.00"> &#160;Exports</text>
<g id="clust1" class="cluster">
<title>cluster_BikePageModule</title>
<polygon fill="none" stroke="black" stroke-dasharray="1,5" points="94,-70 94,-195 402,-195 402,-70 94,-70"/>
</g>
<g id="clust4" class="cluster">
<title>cluster_BikePageModule_imports</title>
<polygon fill="none" stroke="black" points="196,-78 196,-130 394,-130 394,-78 196,-78"/>
</g>
<g id="clust2" class="cluster">
<title>cluster_BikePageModule_declarations</title>
<polygon fill="none" stroke="black" points="102,-78 102,-130 188,-130 188,-78 102,-78"/>
</g>
<!-- BikePage -->
<g id="node1" class="node">
<title>BikePage</title>
<polygon fill="#ffffb3" stroke="black" points="179.65,-122 110.35,-122 110.35,-86 179.65,-86 179.65,-122"/>
<text text-anchor="middle" x="145" y="-99.8" font-family="Times,serif" font-size="14.00">BikePage</text>
</g>
<!-- BikePageModule -->
<g id="node2" class="node">
<title>BikePageModule</title>
<polygon fill="#8dd3c7" stroke="black" points="283.7,-187 280.7,-191 259.7,-191 256.7,-187 170.3,-187 170.3,-151 283.7,-151 283.7,-187"/>
<text text-anchor="middle" x="227" y="-164.8" font-family="Times,serif" font-size="14.00">BikePageModule</text>
</g>
<!-- BikePage&#45;&gt;BikePageModule -->
<g id="edge1" class="edge">
<title>BikePage&#45;&gt;BikePageModule</title>
<path fill="none" stroke="black" d="M175.11,-122.11C175.11,-122.11 175.11,-140.99 175.11,-140.99"/>
<polygon fill="black" stroke="black" points="171.61,-140.99 175.11,-150.99 178.61,-140.99 171.61,-140.99"/>
</g>
<!-- AddBikePageRoutingModule -->
<g id="node3" class="node">
<title>AddBikePageRoutingModule</title>
<polygon fill="#8dd3c7" stroke="black" points="386.43,-122 383.43,-126 362.43,-126 359.43,-122 203.57,-122 203.57,-86 386.43,-86 386.43,-122"/>
<text text-anchor="middle" x="295" y="-99.8" font-family="Times,serif" font-size="14.00">AddBikePageRoutingModule</text>
</g>
<!-- AddBikePageRoutingModule&#45;&gt;BikePageModule -->
<g id="edge2" class="edge">
<title>AddBikePageRoutingModule&#45;&gt;BikePageModule</title>
<path fill="none" stroke="black" d="M243.69,-122.11C243.69,-122.11 243.69,-140.99 243.69,-140.99"/>
<polygon fill="black" stroke="black" points="240.19,-140.99 243.69,-150.99 247.19,-140.99 240.19,-140.99"/>
</g>
</g>
</svg>
