<?xml version="1.0" encoding="UTF-8" standalone="no"?>
<!DOCTYPE svg PUBLIC "-//W3C//DTD SVG 1.1//EN"
 "http://www.w3.org/Graphics/SVG/1.1/DTD/svg11.dtd">
<!-- Generated by graphviz version 2.47.0 (20210316.0004)
 -->
<!-- Title: dependencies Pages: 1 -->
<svg width="504pt" height="211pt"
 viewBox="0.00 0.00 504.00 211.00" xmlns="http://www.w3.org/2000/svg" xmlns:xlink="http://www.w3.org/1999/xlink">
<g id="graph0" class="graph" transform="scale(1 1) rotate(0) translate(4 207)">
<title>dependencies</title>
<polygon fill="white" stroke="transparent" points="-4,4 -4,-207 500,-207 500,4 -4,4"/>
<text text-anchor="start" x="227.01" y="-42.4" font-family="Times-12" font-weight="bold" font-size="14.00">Legend</text>
<polygon fill="#ffffb3" stroke="transparent" points="14,-10 14,-30 34,-30 34,-10 14,-10"/>
<text text-anchor="start" x="37.63" y="-15.4" font-family="Times-12" font-size="14.00"> &#160;Declarations</text>
<polygon fill="#8dd3c7" stroke="transparent" points="127,-10 127,-30 147,-30 147,-10 127,-10"/>
<text text-anchor="start" x="150.73" y="-15.4" font-family="Times-12" font-size="14.00"> &#160;Module</text>
<polygon fill="#80b1d3" stroke="transparent" points="213,-10 213,-30 233,-30 233,-10 213,-10"/>
<text text-anchor="start" x="236.78" y="-15.4" font-family="Times-12" font-size="14.00"> &#160;Bootstrap</text>
<polygon fill="#fdb462" stroke="transparent" points="310,-10 310,-30 330,-30 330,-10 310,-10"/>
<text text-anchor="start" x="333.67" y="-15.4" font-family="Times-12" font-size="14.00"> &#160;Providers</text>
<polygon fill="#fb8072" stroke="transparent" points="406,-10 406,-30 426,-30 426,-10 406,-10"/>
<text text-anchor="start" x="429.73" y="-15.4" font-family="Times-12" font-size="14.00"> &#160;Exports</text>
<g id="clust1" class="cluster">
<title>cluster_AdminsPageModule</title>
<polygon fill="none" stroke="black" stroke-dasharray="1,5" points="14,-70 14,-195 482,-195 482,-70 14,-70"/>
</g>
<g id="clust4" class="cluster">
<title>cluster_AdminsPageModule_imports</title>
<polygon fill="none" stroke="black" points="134,-78 134,-130 474,-130 474,-78 134,-78"/>
</g>
<g id="clust2" class="cluster">
<title>cluster_AdminsPageModule_declarations</title>
<polygon fill="none" stroke="black" points="22,-78 22,-130 126,-130 126,-78 22,-78"/>
</g>
<!-- AdminsPage -->
<g id="node1" class="node">
<title>AdminsPage</title>
<polygon fill="#ffffb3" stroke="black" points="117.55,-122 30.45,-122 30.45,-86 117.55,-86 117.55,-122"/>
<text text-anchor="middle" x="74" y="-99.8" font-family="Times,serif" font-size="14.00">AdminsPage</text>
</g>
<!-- AdminsPageModule -->
<g id="node2" class="node">
<title>AdminsPageModule</title>
<polygon fill="#8dd3c7" stroke="black" points="272.59,-187 269.59,-191 248.59,-191 245.59,-187 141.41,-187 141.41,-151 272.59,-151 272.59,-187"/>
<text text-anchor="middle" x="207" y="-164.8" font-family="Times,serif" font-size="14.00">AdminsPageModule</text>
</g>
<!-- AdminsPage&#45;&gt;AdminsPageModule -->
<g id="edge1" class="edge">
<title>AdminsPage&#45;&gt;AdminsPageModule</title>
<path fill="none" stroke="black" d="M74,-122.11C74,-141.34 74,-169 74,-169 74,-169 131.28,-169 131.28,-169"/>
<polygon fill="black" stroke="black" points="131.28,-172.5 141.28,-169 131.28,-165.5 131.28,-172.5"/>
</g>
<!-- AdminsPageRoutingModule -->
<g id="node3" class="node">
<title>AdminsPageRoutingModule</title>
<polygon fill="#8dd3c7" stroke="black" points="466.21,-122 463.21,-126 442.21,-126 439.21,-122 289.79,-122 289.79,-86 466.21,-86 466.21,-122"/>
<text text-anchor="middle" x="378" y="-99.8" font-family="Times,serif" font-size="14.00">AdminsPageRoutingModule</text>
</g>
<!-- AdminsPageRoutingModule&#45;&gt;AdminsPageModule -->
<g id="edge2" class="edge">
<title>AdminsPageRoutingModule&#45;&gt;AdminsPageModule</title>
<path fill="none" stroke="black" d="M378,-122.11C378,-141.34 378,-169 378,-169 378,-169 282.62,-169 282.62,-169"/>
<polygon fill="black" stroke="black" points="282.62,-165.5 272.62,-169 282.62,-172.5 282.62,-165.5"/>
</g>
<!-- MessageComponent -->
<g id="node4" class="node">
<title>MessageComponent</title>
<polygon fill="#8dd3c7" stroke="black" points="272.31,-122 269.31,-126 248.31,-126 245.31,-122 141.69,-122 141.69,-86 272.31,-86 272.31,-122"/>
<text text-anchor="middle" x="207" y="-99.8" font-family="Times,serif" font-size="14.00">MessageComponent</text>
</g>
<!-- MessageComponent&#45;&gt;AdminsPageModule -->
<g id="edge3" class="edge">
<title>MessageComponent&#45;&gt;AdminsPageModule</title>
<path fill="none" stroke="black" d="M207,-122.11C207,-122.11 207,-140.99 207,-140.99"/>
<polygon fill="black" stroke="black" points="203.5,-140.99 207,-150.99 210.5,-140.99 203.5,-140.99"/>
</g>
</g>
</svg>
