<?xml version="1.0" encoding="UTF-8" standalone="no"?>
<!DOCTYPE svg PUBLIC "-//W3C//DTD SVG 1.1//EN"
 "http://www.w3.org/Graphics/SVG/1.1/DTD/svg11.dtd">
<!-- Generated by graphviz version 2.47.0 (20210316.0004)
 -->
<!-- Title: dependencies Pages: 1 -->
<svg width="809pt" height="211pt"
 viewBox="0.00 0.00 809.00 211.00" xmlns="http://www.w3.org/2000/svg" xmlns:xlink="http://www.w3.org/1999/xlink">
<g id="graph0" class="graph" transform="scale(1 1) rotate(0) translate(4 207)">
<title>dependencies</title>
<polygon fill="white" stroke="transparent" points="-4,4 -4,-207 805,-207 805,4 -4,4"/>
<text text-anchor="start" x="379.51" y="-42.4" font-family="Times-12" font-weight="bold" font-size="14.00">Legend</text>
<polygon fill="#ffffb3" stroke="transparent" points="166.5,-10 166.5,-30 186.5,-30 186.5,-10 166.5,-10"/>
<text text-anchor="start" x="190.13" y="-15.4" font-family="Times-12" font-size="14.00"> &#160;Declarations</text>
<polygon fill="#8dd3c7" stroke="transparent" points="279.5,-10 279.5,-30 299.5,-30 299.5,-10 279.5,-10"/>
<text text-anchor="start" x="303.23" y="-15.4" font-family="Times-12" font-size="14.00"> &#160;Module</text>
<polygon fill="#80b1d3" stroke="transparent" points="365.5,-10 365.5,-30 385.5,-30 385.5,-10 365.5,-10"/>
<text text-anchor="start" x="389.28" y="-15.4" font-family="Times-12" font-size="14.00"> &#160;Bootstrap</text>
<polygon fill="#fdb462" stroke="transparent" points="462.5,-10 462.5,-30 482.5,-30 482.5,-10 462.5,-10"/>
<text text-anchor="start" x="486.17" y="-15.4" font-family="Times-12" font-size="14.00"> &#160;Providers</text>
<polygon fill="#fb8072" stroke="transparent" points="558.5,-10 558.5,-30 578.5,-30 578.5,-10 558.5,-10"/>
<text text-anchor="start" x="582.23" y="-15.4" font-family="Times-12" font-size="14.00"> &#160;Exports</text>
<g id="clust1" class="cluster">
<title>cluster_ActionsPageModule</title>
<polygon fill="none" stroke="black" stroke-dasharray="1,5" points="8,-70 8,-195 793,-195 793,-70 8,-70"/>
</g>
<g id="clust2" class="cluster">
<title>cluster_ActionsPageModule_declarations</title>
<polygon fill="none" stroke="black" points="683,-78 683,-130 785,-130 785,-78 683,-78"/>
</g>
<g id="clust4" class="cluster">
<title>cluster_ActionsPageModule_imports</title>
<polygon fill="none" stroke="black" points="16,-78 16,-130 675,-130 675,-78 16,-78"/>
</g>
<!-- ActionsPage -->
<g id="node1" class="node">
<title>ActionsPage</title>
<polygon fill="#ffffb3" stroke="black" points="777.26,-122 690.74,-122 690.74,-86 777.26,-86 777.26,-122"/>
<text text-anchor="middle" x="734" y="-99.8" font-family="Times,serif" font-size="14.00">ActionsPage</text>
</g>
<!-- ActionsPageModule -->
<g id="node2" class="node">
<title>ActionsPageModule</title>
<polygon fill="#8dd3c7" stroke="black" points="435.31,-187 432.31,-191 411.31,-191 408.31,-187 304.69,-187 304.69,-151 435.31,-151 435.31,-187"/>
<text text-anchor="middle" x="370" y="-164.8" font-family="Times,serif" font-size="14.00">ActionsPageModule</text>
</g>
<!-- ActionsPage&#45;&gt;ActionsPageModule -->
<g id="edge1" class="edge">
<title>ActionsPage&#45;&gt;ActionsPageModule</title>
<path fill="none" stroke="black" d="M734,-122.28C734,-143.32 734,-175 734,-175 734,-175 445.5,-175 445.5,-175"/>
<polygon fill="black" stroke="black" points="445.5,-171.5 435.5,-175 445.5,-178.5 445.5,-171.5"/>
</g>
<!-- ActionsPageRoutingModule -->
<g id="node3" class="node">
<title>ActionsPageRoutingModule</title>
<polygon fill="#8dd3c7" stroke="black" points="666.93,-122 663.93,-126 642.93,-126 639.93,-122 491.07,-122 491.07,-86 666.93,-86 666.93,-122"/>
<text text-anchor="middle" x="579" y="-99.8" font-family="Times,serif" font-size="14.00">ActionsPageRoutingModule</text>
</g>
<!-- ActionsPageRoutingModule&#45;&gt;ActionsPageModule -->
<g id="edge2" class="edge">
<title>ActionsPageRoutingModule&#45;&gt;ActionsPageModule</title>
<path fill="none" stroke="black" d="M579,-122.02C579,-139.37 579,-163 579,-163 579,-163 445.27,-163 445.27,-163"/>
<polygon fill="black" stroke="black" points="445.27,-159.5 435.27,-163 445.27,-166.5 445.27,-159.5"/>
</g>
<!-- AddressAutocompleteComponent -->
<g id="node4" class="node">
<title>AddressAutocompleteComponent</title>
<polygon fill="#8dd3c7" stroke="black" points="473.02,-122 470.02,-126 449.02,-126 446.02,-122 266.98,-122 266.98,-86 473.02,-86 473.02,-122"/>
<text text-anchor="middle" x="370" y="-99.8" font-family="Times,serif" font-size="14.00">AddressAutocompleteComponent</text>
</g>
<!-- AddressAutocompleteComponent&#45;&gt;ActionsPageModule -->
<g id="edge3" class="edge">
<title>AddressAutocompleteComponent&#45;&gt;ActionsPageModule</title>
<path fill="none" stroke="black" d="M370,-122.11C370,-122.11 370,-140.99 370,-140.99"/>
<polygon fill="black" stroke="black" points="366.5,-140.99 370,-150.99 373.5,-140.99 366.5,-140.99"/>
</g>
<!-- LoginPage -->
<g id="node5" class="node">
<title>LoginPage</title>
<polygon fill="#8dd3c7" stroke="black" points="248.16,-122 245.16,-126 224.16,-126 221.16,-122 171.84,-122 171.84,-86 248.16,-86 248.16,-122"/>
<text text-anchor="middle" x="210" y="-99.8" font-family="Times,serif" font-size="14.00">LoginPage</text>
</g>
<!-- LoginPage&#45;&gt;ActionsPageModule -->
<g id="edge4" class="edge">
<title>LoginPage&#45;&gt;ActionsPageModule</title>
<path fill="none" stroke="black" d="M210,-122.02C210,-139.37 210,-163 210,-163 210,-163 294.46,-163 294.46,-163"/>
<polygon fill="black" stroke="black" points="294.46,-166.5 304.46,-163 294.46,-159.5 294.46,-166.5"/>
</g>
<!-- MessageComponent -->
<g id="node6" class="node">
<title>MessageComponent</title>
<polygon fill="#8dd3c7" stroke="black" points="154.31,-122 151.31,-126 130.31,-126 127.31,-122 23.69,-122 23.69,-86 154.31,-86 154.31,-122"/>
<text text-anchor="middle" x="89" y="-99.8" font-family="Times,serif" font-size="14.00">MessageComponent</text>
</g>
<!-- MessageComponent&#45;&gt;ActionsPageModule -->
<g id="edge5" class="edge">
<title>MessageComponent&#45;&gt;ActionsPageModule</title>
<path fill="none" stroke="black" d="M89,-122.28C89,-143.32 89,-175 89,-175 89,-175 294.83,-175 294.83,-175"/>
<polygon fill="black" stroke="black" points="294.83,-178.5 304.83,-175 294.83,-171.5 294.83,-178.5"/>
</g>
</g>
</svg>
